# xmcd
#
# Track frame offsets:
#	150
#	19756
#	37308
#	56344
#	76496
#	95754
#	120954
#	143607
#	164236
#	184255
#	203761
#	224990
#	243894
#	265383
#
# Disc length: 3814 seconds
#
# Revision: 1
# Processed by: cddbd v1.5.2PL0 Copyright (c) Steve Scherf et al.
# Submitted via: audiograbber 1.83.01
#
DISCID=d20ee40e
DTITLE=Yangman - Tear in Silence
DYEAR=2008
DGENRE=Easy Listening
TTITLE0=Pierce of heart
TTITLE1=Owe the whle life
TTITLE2=A person falls in love with romance
TTITLE3=How I can forget him
TTITLE4=Fall in love with other person
TTITLE5=Dream and inebriate in the west building
TTITLE6=Trap the feeling
TTITLE7=No need to care where I am
TTITLE8=No need to care whom I am
TTITLE9=No way to be back
TTITLE10=Who am I for you
TTITLE11=Green flower porcelain
TTITLE12=I ain't your favourite woman
TTITLE13=Listen to the love song and tear
EXTD=
EXTT0=
EXTT1=
EXTT2=
EXTT3=
EXTT4=
EXTT5=
EXTT6=
EXTT7=
EXTT8=
EXTT9=
EXTT10=
EXTT11=
EXTT12=
EXTT13=
PLAYORDER=
